# xmcd CD database file
#
# Track frame offsets:
#	150
#	13920
#	25758
#	36942
#	47230
#	63057
#	73353
#	87140
#	97225
#	110252
#	119892
#	131722
#	144765
#	157310
#	169136
#	182888
#	195964
#	206760
#	217107
#	229157
#	240296
#	250334
#	259962
#	271251
#	282290
#	293961
#
# Disc length: 4062 seconds
#
# Revision: 0
# Processed by: cddbd v1.5.1PL0 Copyright (c) Steve Scherf et al.
# Submitted via: CDex 1.50
#
DISCID=950fdc1a
DTITLE=patsy cline - the wonderfull world of
DYEAR=1900
DGENRE=Country
TTITLE0=Patsy Cline - She's Got You
TTITLE1=Patsy Cline - Sweet Dreams (Of You)
TTITLE2=Patsy Cline - Leavin' On Your Mind
TTITLE3=Patsy Cline - fooling round
TTITLE4=Patsy Cline - Why Can't He Be You
TTITLE5=Patsy Cline - I Love You So Much (It Hurts)
TTITLE6=Patsy Cline - You Belong To Me
TTITLE7=Patsy Cline - Heartaches
TTITLE8=Patsy Cline - You're Stronger Than Me
TTITLE9=Patsy Cline - Back in Baby's Arms
TTITLE10=Patsy Cline - Walking After Midnight
TTITLE11=Patsy Cline - I Fall To Pieces
TTITLE12=Patsy Cline - Crazy
TTITLE13=Patsy Cline - A Poor Man's Roses
TTITLE14=Patsy Cline - So Wrong
TTITLE15=Patsy Cline - Imagine That
TTITLE16=Patsy Cline - San Antonio Rose
TTITLE17=Patsy Cline - seven lonely days
TTITLE18=Patsy Cline - Your Cheating Heart
TTITLE19=Patsy Cline - South Of The Border
TTITLE20=Patsy Cline - Strange
TTITLE21=Patsy Cline - True Love
TTITLE22=Patsy Cline - I Cant Forget you
TTITLE23=Patsy Cline - A Stranger in My Arms
TTITLE24=Patsy Cline - Crazy Dreams
TTITLE25=Patsy Cline - I Love You Honey
EXTD=
EXTT0=
EXTT1=
EXTT2=
EXTT3=
EXTT4=
EXTT5=
EXTT6=
EXTT7=
EXTT8=
EXTT9=
EXTT10=
EXTT11=
EXTT12=
EXTT13=
EXTT14=
EXTT15=
EXTT16=
EXTT17=
EXTT18=
EXTT19=
EXTT20=
EXTT21=
EXTT22=
EXTT23=
EXTT24=
EXTT25=
PLAYORDER=
